<svg xmlns="http://www.w3.org/2000/svg" width="512" height="512" viewBox="0 0 512 512"><defs><linearGradient id="g" x1="0.1" y1="0" x2="0.9" y2="1"><stop offset="0" stop-color="#FFC658"></stop><stop offset="0.5" stop-color="#FF8D53"></stop><stop offset="1" stop-color="#F05F6B"></stop></linearGradient></defs><rect width="512" height="512" fill="#12202B"></rect><path d="M 147.1 285.0 A 130.0 130.0 0 1 1 364.9 285.0 L 256 452.0 Z" fill="url(#g)"></path><circle cx="188.0" cy="192.3" r="20.3" fill="#12202B"></circle><path d="M 168.3 238.5 Q 168.3 220.7 188.0 220.7 Q 207.7 220.7 207.7 238.5 L 214.1 281.0 Q 214.1 288.0 207.1 288.0 L 168.9 288.0 Q 161.9 288.0 161.9 281.0 Z" fill="#12202B"></path><circle cx="256.0" cy="228.3" r="18.3" fill="#12202B"></circle><path d="M 240.8 267.6 Q 240.8 254.0 256.0 254.0 Q 271.2 254.0 271.2 267.6 L 276.1 281.0 Q 276.1 288.0 269.1 288.0 L 242.9 288.0 Q 235.9 288.0 235.9 281.0 Z" fill="#12202B"></path><circle cx="324.0" cy="192.3" r="20.3" fill="#12202B"></circle><path d="M 304.3 238.5 Q 304.3 220.7 324.0 220.7 Q 343.7 220.7 343.7 238.5 L 350.1 281.0 Q 350.1 288.0 343.1 288.0 L 304.9 288.0 Q 297.9 288.0 297.9 281.0 Z" fill="#12202B"></path></svg>